<?xml version="1.0" encoding="iso-8859-1"?>
<!-- Generator: Adobe Illustrator 19.0.0, SVG Export Plug-In . SVG Version: 6.00 Build 0)  -->
<svg version="1.1" id="Layer_1" xmlns="http://www.w3.org/2000/svg" xmlns:xlink="http://www.w3.org/1999/xlink" x="0px" y="0px"
	 viewBox="0 0 512 512" style="enable-background:new 0 0 512 512;" xml:space="preserve">
<g>
	<g>
		<polygon points="31.338,99.143 15.669,88.049 0,76.945 0,356.01 15.669,344.049 31.338,332.089 189.605,211.281 		"/>
	</g>
</g>
<g>
	<g>
		<path d="M455.445,89.094l-15.669,11.021L282.334,210.873l44.218,31.213c8.837-6.393,18.385-11.7,28.528-15.836
			c16.4-6.685,33.751-10.07,51.561-10.07c11.323,0,22.428,1.368,33.135,4.022c5.328,1.316,10.561,2.956,15.669,4.91
			c5.369,2.047,10.603,4.44,15.669,7.156V78.073L455.445,89.094z"/>
	</g>
</g>
<g>
	<g>
		<path d="M270.165,360.815c-0.157-2.653-0.23-5.307-0.23-7.939c0-2.58,0.073-5.16,0.219-7.73
			c1.703-30.074,13.298-58.654,32.811-81.353l-47.843-33.761l-19.597,13.778l-19.127-13.548L65.893,345.146l-20.526,15.669
			l-20.526,15.669h247.142c-0.522-2.956-0.94-5.944-1.264-8.942C270.478,365.307,270.29,363.061,270.165,360.815z"/>
	</g>
</g>
<g>
	<g>
		<polygon points="21.477,53.755 43.591,69.424 65.705,85.093 235.589,205.452 406.663,85.093 428.933,69.424 451.215,53.755 		"/>
	</g>
</g>
<g>
	<g>
		<path d="M511.969,350.338v-0.261c-0.021-0.648-0.042-1.295-0.073-1.943c-0.042-1.045-0.104-2.089-0.188-3.134
			c-0.021-0.292-0.042-0.585-0.073-0.877c0-0.063,0-0.125-0.01-0.188c-0.052-0.679-0.115-1.358-0.188-2.037
			c-0.084-0.794-0.178-1.577-0.272-2.361c-0.094-0.752-0.198-1.504-0.313-2.246c-0.042-0.282-0.084-0.554-0.125-0.825
			c-0.01-0.094-0.031-0.188-0.042-0.282c-0.23-1.421-0.481-2.841-0.763-4.241c-0.157-0.773-0.324-1.536-0.491-2.298
			c-0.094-0.397-0.178-0.794-0.282-1.191c-0.01-0.031-0.01-0.073-0.021-0.104c-0.146-0.606-0.292-1.201-0.449-1.807
			c-0.01-0.031-0.01-0.052-0.021-0.084c-0.209-0.815-0.428-1.619-0.658-2.423c-0.146-0.543-0.303-1.086-0.47-1.619
			c-0.042-0.125-0.073-0.24-0.104-0.355c-0.115-0.366-0.23-0.731-0.345-1.086c-0.209-0.679-0.428-1.348-0.658-2.006
			c-0.261-0.763-0.522-1.515-0.794-2.267c-0.01-0.021-0.021-0.042-0.021-0.052c-0.282-0.763-0.575-1.525-0.877-2.277
			c-0.052-0.167-0.115-0.324-0.178-0.47c-0.24-0.616-0.491-1.233-0.752-1.839c-0.063-0.136-0.115-0.272-0.178-0.407
			c-0.24-0.585-0.501-1.17-0.752-1.745c-0.157-0.345-0.313-0.689-0.48-1.034c-0.219-0.491-0.449-0.982-0.689-1.473
			c-0.261-0.564-0.543-1.128-0.825-1.692c0-0.01-0.01-0.01-0.01-0.021v-0.01c-0.052-0.094-0.094-0.188-0.146-0.282
			c-0.167-0.334-0.345-0.669-0.512-1.003c-0.23-0.439-0.46-0.877-0.689-1.306c-0.178-0.313-0.345-0.627-0.512-0.93
			c-0.167-0.313-0.345-0.627-0.522-0.94c-0.031-0.063-0.063-0.136-0.104-0.198c-0.533-0.94-1.076-1.859-1.63-2.779
			c-0.188-0.292-0.366-0.585-0.543-0.867c-0.376-0.606-0.752-1.212-1.149-1.807c-0.094-0.157-0.188-0.313-0.303-0.46
			c-0.334-0.522-0.679-1.045-1.034-1.556c-0.24-0.355-0.48-0.7-0.731-1.055c-0.366-0.533-0.742-1.065-1.139-1.588
			c-0.115-0.178-0.24-0.345-0.376-0.512c-0.24-0.334-0.491-0.679-0.752-1.013c-0.251-0.334-0.512-0.669-0.763-1.003
			c-0.052-0.073-0.104-0.136-0.157-0.198c-0.324-0.418-0.648-0.836-0.982-1.243c-0.136-0.178-0.282-0.345-0.418-0.522
			c-0.167-0.209-0.334-0.407-0.501-0.616c-0.334-0.397-0.669-0.804-1.013-1.201c-0.031-0.031-0.052-0.063-0.084-0.094
			c-0.23-0.272-0.47-0.554-0.71-0.825c-0.606-0.689-1.222-1.379-1.849-2.058c-0.146-0.167-0.292-0.324-0.449-0.491
			c-0.031-0.042-0.073-0.073-0.115-0.115c-0.198-0.209-0.387-0.418-0.585-0.627l-0.564-0.595c-0.01-0.01-0.021-0.021-0.031-0.031
			l-0.021-0.021c-0.261-0.272-0.533-0.554-0.804-0.825c-0.021-0.021-0.052-0.052-0.073-0.073c-0.01-0.01-0.01-0.01-0.021-0.021
			c-0.104-0.104-0.209-0.209-0.313-0.313c-0.094-0.104-0.198-0.209-0.313-0.313c-0.209-0.219-0.439-0.439-0.658-0.648
			c-0.136-0.136-0.282-0.282-0.428-0.418c-0.334-0.313-0.658-0.637-0.992-0.951c-0.324-0.313-0.658-0.616-1.003-0.93
			c-0.24-0.23-0.491-0.449-0.731-0.669c-0.063-0.052-0.115-0.115-0.178-0.167c-0.428-0.376-0.857-0.763-1.285-1.128
			c-0.376-0.324-0.752-0.648-1.128-0.961c-0.366-0.313-0.742-0.627-1.128-0.94c-0.386-0.324-0.783-0.637-1.17-0.94
			c-0.376-0.303-0.763-0.606-1.139-0.898c-1.076-0.836-2.162-1.65-3.27-2.434c-0.261-0.188-0.512-0.366-0.773-0.543
			c-0.501-0.366-1.013-0.71-1.525-1.055c-0.491-0.334-0.992-0.669-1.494-0.992c-0.021-0.01-0.042-0.031-0.063-0.042
			c-0.334-0.23-0.669-0.439-1.013-0.648c-0.721-0.46-1.452-0.919-2.194-1.358c-1.097-0.658-2.204-1.295-3.322-1.912
			c-0.585-0.324-1.18-0.648-1.786-0.961c-0.073-0.042-0.157-0.084-0.23-0.125c-0.042-0.021-0.094-0.052-0.136-0.073
			c-0.063-0.031-0.136-0.073-0.198-0.094c-0.355-0.188-0.7-0.366-1.055-0.543c-0.073-0.042-0.136-0.073-0.209-0.104
			c-0.501-0.261-1.013-0.512-1.525-0.752c-0.71-0.345-1.431-0.679-2.152-1.003c-0.115-0.063-0.24-0.115-0.355-0.167
			c-0.71-0.324-1.431-0.637-2.162-0.94c-0.721-0.303-1.452-0.606-2.183-0.898c-0.104-0.042-0.209-0.084-0.313-0.125
			c-0.376-0.146-0.742-0.282-1.118-0.418c-0.01-0.01-0.01-0.01-0.021-0.01l-0.01-0.01h-0.01c-0.031-0.01-0.073-0.031-0.104-0.042
			c-0.063-0.021-0.125-0.042-0.188-0.073c-0.084-0.031-0.157-0.063-0.24-0.084c-0.522-0.198-1.055-0.386-1.588-0.575
			c-0.052-0.021-0.115-0.042-0.178-0.063c-0.345-0.125-0.689-0.251-1.045-0.366c-0.355-0.125-0.71-0.24-1.055-0.355
			c-0.366-0.125-0.742-0.24-1.118-0.366c-0.366-0.115-0.742-0.23-1.118-0.345c-0.731-0.23-1.473-0.439-2.215-0.648
			c-0.052-0.01-0.094-0.031-0.146-0.042c-0.575-0.167-1.159-0.324-1.745-0.47c-0.021,0-0.031-0.01-0.052-0.01
			c-0.136-0.042-0.272-0.073-0.407-0.104c-0.418-0.115-0.836-0.219-1.264-0.313c-0.481-0.125-0.971-0.24-1.452-0.345
			c-0.24-0.063-0.47-0.115-0.7-0.157c-0.084-0.021-0.178-0.042-0.261-0.052c-0.522-0.115-1.045-0.23-1.577-0.334
			c-0.031-0.01-0.063-0.01-0.094-0.021c-0.71-0.146-1.431-0.282-2.152-0.407c-0.763-0.136-1.525-0.272-2.288-0.386
			c-0.292-0.042-0.595-0.094-0.898-0.136c-0.501-0.073-1.003-0.146-1.504-0.209c-0.042-0.01-0.084-0.01-0.125-0.01
			c-0.24-0.042-0.481-0.063-0.731-0.094c-0.24-0.031-0.491-0.052-0.731-0.084c-0.136-0.031-0.282-0.042-0.418-0.052
			c-0.669-0.084-1.337-0.157-2.016-0.209c-0.178-0.021-0.345-0.042-0.522-0.052c-0.115-0.01-0.24-0.021-0.355-0.031
			c-0.084-0.01-0.157-0.01-0.24-0.021c-0.052,0-0.104-0.01-0.157-0.01c-0.355-0.031-0.721-0.052-1.086-0.084
			c-0.324-0.021-0.648-0.052-0.971-0.063c-0.543-0.042-1.097-0.063-1.64-0.094c-0.104,0-0.209-0.01-0.313-0.01
			c-0.407-0.021-0.825-0.031-1.233-0.042c-0.324-0.021-0.637-0.031-0.961-0.031c-0.825-0.021-1.64-0.031-2.465-0.031
			c-14.06,0-27.473,2.758-39.737,7.751c-10.655,4.346-20.432,10.373-29.019,17.769c-0.24,0.198-0.47,0.407-0.71,0.616
			c-22.01,19.315-35.903,47.644-35.903,79.222c0,3.834,0.209,7.615,0.606,11.334c0.073,0.658,0.146,1.306,0.23,1.953
			c0.052,0.376,0.094,0.742,0.146,1.118c0.01,0.104,0.031,0.219,0.042,0.324c0.021,0.125,0.031,0.24,0.052,0.366
			c0.01,0.052,0.01,0.094,0.021,0.146c0.01,0.042,0.01,0.073,0.021,0.115c0.073,0.533,0.167,1.086,0.251,1.619
			c0.115,0.752,0.24,1.494,0.386,2.235c0.01,0.042,0.01,0.084,0.021,0.125c0.021,0.157,0.052,0.303,0.084,0.449
			c0.146,0.783,0.313,1.567,0.481,2.35c0.104,0.491,0.209,0.982,0.324,1.473c0.157,0.7,0.324,1.4,0.501,2.089
			c0.104,0.439,0.219,0.867,0.334,1.306c0.115,0.428,0.23,0.867,0.355,1.295c0.23,0.857,0.48,1.713,0.752,2.57
			c0.01,0.063,0.031,0.125,0.063,0.198c0.115,0.418,0.251,0.836,0.397,1.254c0.157,0.501,0.324,1.003,0.491,1.504
			c0.24,0.721,0.491,1.431,0.752,2.141c0.251,0.71,0.522,1.421,0.794,2.121c0,0.01,0.01,0.031,0.01,0.042
			c0.272,0.689,0.554,1.379,0.836,2.058c0.334,0.815,0.679,1.619,1.024,2.413c0.23,0.512,0.449,1.013,0.689,1.515
			c0.084,0.178,0.167,0.355,0.251,0.533c0.261,0.574,0.533,1.139,0.815,1.703c0.324,0.658,0.648,1.306,0.992,1.953
			c0.01,0.031,0.021,0.052,0.042,0.084c0.282,0.564,0.585,1.118,0.888,1.671c0.084,0.167,0.167,0.324,0.261,0.491
			c0.031,0.063,0.063,0.115,0.094,0.178c0.345,0.627,0.7,1.264,1.065,1.88c0.282,0.512,0.585,1.013,0.888,1.515
			c0.783,1.316,1.609,2.622,2.455,3.896c0.825,1.243,1.661,2.455,2.528,3.656c0.428,0.606,0.877,1.201,1.327,1.786
			c1.431,1.901,2.925,3.75,4.492,5.547c0.386,0.449,0.773,0.888,1.17,1.327c0.46,0.512,0.919,1.024,1.4,1.525
			c0.146,0.167,0.303,0.324,0.46,0.48c0.888,0.961,1.807,1.901,2.747,2.82c19.012,18.688,45.074,30.21,73.832,30.21
			c58.195,0,105.358-47.174,105.358-105.369C512,352.03,511.99,351.184,511.969,350.338z M462.089,369.569L462.089,369.569h-39.778
			v41.847h-31.338v-41.847h-39.778v-31.338h39.778v-41.836h31.338v41.836h39.778V369.569z"/>
	</g>
</g>
<g>
</g>
<g>
</g>
<g>
</g>
<g>
</g>
<g>
</g>
<g>
</g>
<g>
</g>
<g>
</g>
<g>
</g>
<g>
</g>
<g>
</g>
<g>
</g>
<g>
</g>
<g>
</g>
<g>
</g>
</svg>
