<svg xmlns="http://www.w3.org/2000/svg" xmlns:xlink="http://www.w3.org/1999/xlink" width="375" viewBox="0 0 375 375" height="375" version="1.0"><defs><clipPath id="d"><path d="M 0.359375 0 L 258 0 L 258 375 L 0.359375 375 Z M 0.359375 0"/></clipPath><clipPath id="c"><path d="M0 0H258V375H0z"/></clipPath><filter x="0%" y="0%" width="100%" xlink:type="simple" xlink:actuate="onLoad" height="100%" id="a" xlink:show="other"><feColorMatrix values="0 0 0 0 1 0 0 0 0 1 0 0 0 0 1 0 0 0 1 0" color-interpolation-filters="sRGB"/></filter><mask id="b"><g filter="url(#a)"><path fill-opacity=".2" d="M-37.5 -37.5H412.5V412.5H-37.5z"/></g></mask></defs><path fill="#FFF" d="M-37.5 -37.5H412.5V412.5H-37.5z"/><path fill="#FFF" d="M-37.5 -37.5H412.5V412.5H-37.5z"/><path fill="#363A40" d="M-37.5 -37.5H412.5V412.5H-37.5z"/><g mask="url(#b)"><g><g clip-path="url(#c)" transform="translate(117)"><path fill="#C5E8F6" d="M 247.871094 9.90625 L 247.871094 360.144531 L 129.132812 310.945312 L 10.296875 360.144531 L 10.296875 9.90625 L 247.871094 9.90625"/><g clip-path="url(#d)"><path fill="#11B8C6" d="M 0.410156 0.0078125 L 0.410156 374.992188 L 129.035156 321.734375 L 257.660156 374.992188 L 257.660156 0.0078125 L 0.410156 0.0078125 M 247.871094 53.5625 L 247.871094 360.144531 L 129.132812 310.945312 L 10.296875 360.144531 L 10.296875 9.90625 L 247.871094 9.90625 L 247.871094 53.5625"/></g></g></g></g><g fill="#D8DDE6"><g><g><path d="M 8.175781 0 L 15.558594 0 L 15.558594 -21.183594 C 15.558594 -34.195312 22.0625 -38.765625 30.328125 -38.765625 L 34.808594 -38.765625 L 34.808594 -45.621094 L 30.679688 -45.621094 C 22.941406 -45.621094 18.371094 -43.160156 15.121094 -37.710938 L 14.242188 -45.621094 L 8.175781 -45.621094 Z M 8.175781 0" transform="translate(0 230.486)"/></g></g></g><g fill="#D8DDE6"><g><g><path d="M 28.746094 1.144531 C 42.898438 1.144531 52.917969 -8.878906 52.917969 -22.855469 C 52.917969 -36.832031 42.898438 -46.765625 28.746094 -46.765625 C 14.59375 -46.765625 4.570312 -36.832031 4.570312 -22.855469 C 4.570312 -8.878906 14.59375 1.144531 28.746094 1.144531 Z M 11.953125 -22.855469 C 11.953125 -32.789062 18.898438 -39.730469 28.746094 -39.730469 C 38.589844 -39.730469 45.535156 -32.789062 45.535156 -22.855469 C 45.535156 -12.832031 38.589844 -5.976562 28.746094 -5.976562 C 18.898438 -5.976562 11.953125 -12.832031 11.953125 -22.855469 Z M 11.953125 -22.855469" transform="translate(38.325 230.486)"/></g></g></g><g fill="#D8DDE6"><g><g><path d="M 24.699219 1.144531 C 35.953125 1.144531 43.25 -4.042969 43.25 -11.953125 C 43.25 -19.074219 37.269531 -23.910156 25.753906 -26.195312 C 16.261719 -28.039062 13.007812 -29.886719 13.007812 -33.753906 C 13.007812 -37.796875 16.878906 -40.257812 23.46875 -40.257812 C 30.414062 -40.257812 34.546875 -37.535156 35.074219 -32.523438 L 42.371094 -32.523438 C 41.753906 -41.488281 34.632812 -46.765625 23.382812 -46.765625 C 12.394531 -46.765625 5.714844 -41.929688 5.714844 -33.753906 C 5.714844 -26.546875 11.25 -22.152344 23.03125 -20.21875 C 31.910156 -18.722656 35.953125 -16.261719 35.953125 -12.128906 C 35.953125 -8 31.734375 -5.449219 24.789062 -5.449219 C 16.964844 -5.449219 12.304688 -8.789062 12.042969 -14.328125 L 4.746094 -14.328125 C 4.921875 -5.011719 12.746094 1.144531 24.699219 1.144531 Z M 24.699219 1.144531" transform="translate(95.813 230.486)"/></g></g></g><g fill="#D8DDE6"><g><g><path d="M 23.117188 0.703125 C 30.503906 0.703125 36.304688 -1.671875 40.433594 -6.328125 L 41.226562 0 L 47.292969 0 L 47.292969 -29.007812 C 47.292969 -39.554688 39.292969 -46.765625 27.335938 -46.765625 C 17.40625 -46.765625 9.933594 -41.402344 7.910156 -32.613281 L 15.382812 -32.613281 C 16.878906 -37.09375 21.535156 -39.90625 27.425781 -39.90625 C 35.160156 -39.90625 39.90625 -35.601562 39.90625 -28.480469 L 39.90625 -26.808594 L 21.273438 -26.808594 C 11.777344 -26.808594 5.539062 -21.449219 5.539062 -13.183594 C 5.539062 -4.570312 12.128906 0.703125 23.117188 0.703125 Z M 12.921875 -13.273438 C 12.921875 -17.582031 16.4375 -20.304688 21.535156 -20.304688 L 39.996094 -20.304688 C 39.730469 -11.867188 32.875 -5.890625 23.382812 -5.890625 C 16.964844 -5.890625 12.921875 -8.789062 12.921875 -13.273438 Z M 12.921875 -13.273438" transform="translate(191.802 230.486)"/></g></g></g><g fill="#D8DDE6"><g><g><path d="M 27.863281 0 L 34.722656 0 L 34.722656 -7.121094 L 28.21875 -7.121094 C 22.152344 -7.121094 19.339844 -10.195312 19.339844 -16.789062 L 19.339844 -38.851562 L 34.105469 -38.851562 L 34.105469 -45.621094 L 19.339844 -45.621094 L 19.339844 -56.960938 L 13.625 -56.960938 L 12.921875 -50.808594 C 12.394531 -46.675781 11.164062 -45.621094 6.945312 -45.621094 L 2.375 -45.621094 L 2.375 -38.851562 L 11.953125 -38.851562 L 11.953125 -16.4375 C 11.953125 -5.976562 17.757812 0 27.863281 0 Z M 27.863281 0" transform="translate(246.301 230.486)"/></g></g></g><g fill="#D8DDE6"><g><g><path d="M 11.25 0.703125 C 14.855469 0.703125 17.230469 -1.757812 17.230469 -5.097656 C 17.230469 -8.4375 14.855469 -10.8125 11.25 -10.8125 C 7.734375 -10.8125 5.363281 -8.4375 5.363281 -5.097656 C 5.363281 -1.757812 7.734375 0.703125 11.25 0.703125 Z M 11.25 0.703125" transform="translate(342.817 230.486)"/></g></g></g><g fill="#D8DDE6"><g><g><path d="M 29.097656 13.183594 L 38.851562 13.183594 L 38.851562 6.152344 L 29.710938 6.152344 C 25.84375 6.152344 24.085938 4.570312 24.085938 0.527344 L 24.085938 -17.054688 C 24.085938 -21.800781 22.679688 -24.875 19.601562 -26.457031 C 22.679688 -28.039062 24.085938 -31.117188 24.085938 -35.863281 L 24.085938 -53.269531 C 24.085938 -57.3125 25.84375 -58.894531 29.710938 -58.894531 L 38.851562 -58.894531 L 38.851562 -66.015625 L 29.097656 -66.015625 C 20.921875 -66.015625 16.703125 -61.882812 16.703125 -53.972656 L 16.703125 -36.480469 C 16.703125 -31.910156 15.03125 -29.976562 11.164062 -29.976562 L 9.492188 -29.976562 L 9.492188 -22.941406 L 11.164062 -22.941406 C 15.03125 -22.941406 16.703125 -20.921875 16.703125 -16.351562 L 16.703125 1.230469 C 16.703125 9.054688 20.921875 13.183594 29.097656 13.183594 Z M 29.097656 13.183594" transform="translate(10.732 150.957)"/></g></g></g><g fill="#D8DDE6"><g><g><path d="M 33.050781 1.144531 C 46.5 1.144531 56.257812 -8.964844 56.257812 -22.855469 C 56.257812 -36.65625 46.5 -46.765625 33.050781 -46.765625 C 25.578125 -46.765625 19.25 -43.6875 15.121094 -38.589844 L 14.242188 -45.621094 L 8.175781 -45.621094 L 8.175781 17.582031 L 15.558594 17.582031 L 15.558594 -6.503906 C 19.691406 -1.757812 25.84375 1.144531 33.050781 1.144531 Z M 15.296875 -22.855469 C 15.296875 -32.699219 22.238281 -39.730469 32.085938 -39.730469 C 42.015625 -39.730469 48.875 -32.699219 48.875 -22.855469 C 48.875 -12.921875 42.015625 -5.976562 32.085938 -5.976562 C 22.238281 -5.976562 15.296875 -12.921875 15.296875 -22.855469 Z M 15.296875 -22.855469" transform="translate(168.692 150.957)"/></g></g></g><g fill="#D8DDE6"><g><g><path d="M 8.175781 0 L 15.558594 0 L 15.558594 -23.292969 C 15.558594 -33.316406 21.625 -39.730469 30.238281 -39.730469 C 38.148438 -39.730469 43.074219 -34.105469 43.074219 -24.964844 L 43.074219 0 L 50.457031 0 L 50.457031 -25.667969 C 50.457031 -38.675781 43.25 -46.765625 31.207031 -46.765625 C 25.316406 -46.765625 19.515625 -44.566406 15.558594 -39.644531 L 15.558594 -65.046875 L 8.175781 -65.046875 Z M 8.175781 0" transform="translate(229.52 150.957)"/></g></g></g><g fill="#D8DDE6"><g><g><path d="M 28.039062 1.144531 C 39.46875 1.144531 48.347656 -5.714844 51.421875 -16.789062 L 43.601562 -16.789062 C 41.3125 -10.195312 35.425781 -5.976562 28.039062 -5.976562 C 18.636719 -5.976562 11.953125 -12.921875 11.953125 -22.855469 C 11.953125 -32.699219 18.636719 -39.730469 28.039062 -39.730469 C 34.984375 -39.730469 40.699219 -35.953125 43.425781 -29.625 L 50.894531 -29.625 C 48.609375 -39.90625 39.378906 -46.765625 28.039062 -46.765625 C 14.328125 -46.765625 4.570312 -36.742188 4.570312 -22.855469 C 4.570312 -8.878906 14.328125 1.144531 28.039062 1.144531 Z M 28.039062 1.144531" transform="translate(79.906 307.56)"/></g></g></g><g fill="#D8DDE6"><g><g><path d="M 27.863281 1.144531 C 35.25 1.144531 41.578125 -1.933594 45.710938 -7.03125 L 46.589844 0 L 52.652344 0 L 52.652344 -65.046875 L 45.269531 -65.046875 L 45.269531 -39.203125 C 41.136719 -43.953125 34.984375 -46.765625 27.863281 -46.765625 C 14.328125 -46.765625 4.570312 -36.65625 4.570312 -22.855469 C 4.570312 -8.964844 14.328125 1.144531 27.863281 1.144531 Z M 11.953125 -22.855469 C 11.953125 -32.699219 18.898438 -39.730469 28.746094 -39.730469 C 38.675781 -39.730469 45.535156 -32.699219 45.535156 -22.855469 C 45.535156 -12.921875 38.675781 -5.976562 28.746094 -5.976562 C 18.898438 -5.976562 11.953125 -12.921875 11.953125 -22.855469 Z M 11.953125 -22.855469" transform="translate(193.124 307.56)"/></g></g></g><g fill="#D8DDE6"><g><g><path d="M 27.953125 1.144531 C 38.238281 1.144531 46.675781 -4.394531 50.367188 -13.273438 L 42.015625 -13.273438 C 39.203125 -8.4375 34.019531 -5.800781 28.039062 -5.800781 C 19.339844 -5.800781 13.183594 -11.25 12.042969 -19.867188 L 51.511719 -19.867188 C 52.039062 -35.777344 42.632812 -46.765625 28.039062 -46.765625 C 14.242188 -46.765625 4.570312 -36.917969 4.570312 -22.855469 C 4.570312 -8.703125 14.152344 1.144531 27.953125 1.144531 Z M 12.128906 -26.371094 C 13.449219 -34.457031 19.601562 -39.820312 28.039062 -39.820312 C 36.390625 -39.820312 42.546875 -34.722656 44.128906 -26.371094 Z M 12.128906 -26.371094" transform="translate(253.952 307.56)"/></g></g></g><g fill="#D8DDE6"><g><g><path d="M 14.242188 -66.015625 L 4.484375 -66.015625 L 4.484375 -58.984375 L 13.625 -58.984375 C 17.492188 -58.984375 19.25 -57.402344 19.25 -53.355469 L 19.25 -35.777344 C 19.25 -31.03125 20.65625 -27.953125 23.734375 -26.371094 C 20.65625 -24.789062 19.25 -21.710938 19.25 -16.964844 L 19.25 0.527344 C 19.25 4.570312 17.492188 6.152344 13.625 6.152344 L 4.484375 6.152344 L 4.484375 13.273438 L 14.242188 13.273438 C 22.414062 13.273438 26.632812 9.140625 26.632812 1.230469 L 26.632812 -16.351562 C 26.632812 -20.921875 28.304688 -22.855469 32.171875 -22.855469 L 33.84375 -22.855469 L 33.84375 -29.886719 L 32.171875 -29.886719 C 28.304688 -29.886719 26.632812 -31.910156 26.632812 -36.480469 L 26.632812 -54.058594 C 26.632812 -61.882812 22.414062 -66.015625 14.242188 -66.015625 Z M 14.242188 -66.015625" transform="translate(331.657 307.56)"/></g></g></g></svg>